<svg width="38" height="40" viewBox="0 0 38 40" fill="none" xmlns="http://www.w3.org/2000/svg">
<path fill-rule="evenodd" clip-rule="evenodd" d="M20.5731 39.8072C20.9139 39.8072 21.1 39.5488 21.2839 39.3291L21.5499 39.0372C21.6426 38.942 21.7117 38.8309 21.8043 38.7336C22.0764 38.448 22.3068 38.1182 22.5688 37.8241L24.1213 36.0044C24.2129 35.9081 24.2876 35.8011 24.3764 35.7015C24.9701 35.035 25.8502 33.9681 26.4234 33.2602C26.8392 32.7467 27.257 32.2167 27.7244 31.747L27.997 31.4373C28.278 31.0724 28.6122 30.7351 28.8945 30.3697C29.1783 30.0024 29.5111 29.6741 29.8093 29.3194L30.3318 28.7259C30.6511 28.3665 31.0785 27.8831 31.3691 27.507C31.4476 27.4053 31.5401 27.3144 31.6257 27.2056C32.0416 26.6764 32.4993 26.2049 32.9116 25.6772L33.5587 24.9172C33.619 24.8538 33.6315 24.8212 33.6919 24.7592L34.7247 23.56C34.9051 23.3454 35.0572 23.1474 35.2343 22.9293L36.5196 21.4004C36.768 21.1033 37.1675 20.8134 37.1675 20.3501V14.0908C37.1675 13.7521 36.8064 13.5695 36.582 13.3904L32.2392 9.96983C32.1115 9.87474 31.9973 9.78299 31.8731 9.6809C31.2226 9.1465 31.2771 9.50039 30.4749 10.5036C30.3709 10.6335 30.2813 10.7526 30.1748 10.8828L28.9884 12.3651C28.8892 12.4897 28.7964 12.6094 28.7005 12.7322L24.6143 17.9865C24.511 18.118 24.4085 18.2305 24.3059 18.3573C23.9083 18.8484 23.499 19.3348 23.1205 19.8406L19.9349 23.9817C19.8137 24.1417 19.8119 24.2749 19.8203 24.548L19.8688 26.1492C19.8726 26.2756 19.895 26.3146 19.8944 26.4632C19.8934 26.6995 19.892 26.9212 19.9146 27.1224C19.9368 27.3206 19.9069 27.5692 19.918 27.774C19.9242 27.8903 19.9435 27.9412 19.9426 28.0889C19.942 28.2023 19.9427 28.3156 19.9423 28.429L19.9665 29.3995C19.9728 29.5158 19.992 29.5666 19.9912 29.7144C19.9899 29.9431 19.9899 30.1556 20.0116 30.3491L20.1109 33.5977C20.128 33.804 20.0964 34.0439 20.1134 34.2502C20.1743 34.9855 20.1467 36.0837 20.2079 36.8244C20.2254 37.0362 20.1894 37.2907 20.2127 37.4989C20.2345 37.6923 20.2345 37.9048 20.2332 38.1335L20.2577 38.7882C20.2577 39.0335 20.2834 39.1892 20.281 39.42C20.2791 39.617 20.3595 39.8072 20.5731 39.8072ZM10.3351 5.59952C10.3351 5.83245 10.7591 6.18292 10.9235 6.34543C11.0128 6.43368 11.0539 6.50173 11.1416 6.58835L13.1191 8.58961C13.2086 8.67836 13.2515 8.74761 13.337 8.83266L15.0963 10.6397C15.2542 10.7976 15.3747 10.9425 15.533 11.1007L16.843 12.4593C16.9785 12.5947 17.1265 12.8238 17.3707 12.8292C17.3707 12.392 17.4207 11.9504 17.4187 11.6399L17.4907 10.4504C17.5132 10.1793 17.4899 9.89712 17.5198 9.6304C17.5345 9.49998 17.5377 9.40039 17.5395 9.23772C17.5413 9.092 17.5665 9.02167 17.5648 8.85049L17.6442 7.23163C17.7043 6.79307 17.7193 5.19129 17.7729 4.83724C17.7934 4.70181 17.7732 4.57135 17.7844 4.4363L17.9775 0.844691C17.9699 0.0354067 18.1419 -0.251814 17.1358 0.245624C16.9926 0.316419 16.6109 0.623724 16.4522 0.750729C16.3713 0.815357 16.3018 0.860734 16.2164 0.927487C16.0551 1.05345 15.915 1.16671 15.7523 1.28813L12.5595 3.74819C11.9946 4.2095 11.1152 4.86349 10.4905 5.34255C10.418 5.39826 10.3351 5.48456 10.3351 5.59952ZM19.1419 1.40234C19.1532 1.6116 19.1209 1.87503 19.1484 2.07512C19.238 3.04079 19.1238 20.6869 19.8148 20.8899C19.9538 20.9308 20.2508 20.545 20.3512 20.4192L21.5008 19.1428C21.5603 19.0785 21.6146 19.0383 21.6685 18.9708L22.1572 18.4164C22.3402 18.1974 22.6355 17.9163 22.8258 17.6778C22.8796 17.6103 22.9339 17.5702 22.9934 17.5058C23.0578 17.4363 23.078 17.3947 23.1506 17.3234C23.2248 17.2505 23.2471 17.2241 23.311 17.1441C23.5215 16.8802 23.9566 16.4978 24.1696 16.2559L24.8253 15.5287C25.1023 15.2418 25.3665 14.8838 25.6498 14.6064C25.724 14.5337 25.7432 14.4976 25.8076 14.4246L26.3058 13.8796C26.53 13.6114 26.9089 13.2781 27.1665 13.0178L27.5046 12.6523C27.6609 12.4652 27.8501 12.2935 28.0005 12.105C28.0686 12.0197 28.095 11.9913 28.1732 11.9137C28.4253 11.6637 28.8834 11.1044 29.1675 10.8217L30.3443 9.57244C30.4197 9.49802 30.4441 9.44968 30.5135 9.37768C31.0507 8.81991 30.7178 8.78649 30.1485 8.32439L24.7736 4.09204C24.6488 3.99908 24.5494 3.9122 24.42 3.81486L22.9826 2.68064C22.7386 2.48255 22.5081 2.31146 22.2637 2.11362L20.4705 0.704519C20.263 0.533761 19.9726 0.271667 19.7407 0.148453C19.0387 -0.292732 19.1161 0.694727 19.1419 1.40234ZM23.4359 39.6616C23.4359 39.7271 23.4475 39.7285 23.4602 39.7829C23.5146 39.7956 23.516 39.8072 23.5815 39.8072H35.1053C35.3342 39.8072 35.7395 39.6025 35.8918 39.5019C36.0152 39.4203 36.105 39.3586 36.2158 39.2679C36.5524 38.9922 36.7333 38.6924 36.9252 38.3034C37.0151 38.1213 37.1675 37.6945 37.1675 37.4296V21.8057C37.1675 21.731 37.1339 21.733 37.0705 21.733C36.9797 21.733 36.6906 22.1666 36.6234 22.2563L35.6699 23.5105C35.3693 23.8216 34.2584 25.313 33.8369 25.8746C32.9297 27.0834 31.9437 28.3071 31.0538 29.4964C30.2005 30.6368 29.3783 31.7348 28.4959 32.8581C28.3475 33.0471 28.2075 33.2096 28.0664 33.399L26.7943 35.111C26.5069 35.4922 26.2318 35.8514 25.9379 36.2198L24.6663 37.908C24.5921 38.0074 24.5256 38.087 24.4548 38.1817L23.5881 39.3043C23.5186 39.3964 23.4359 39.5111 23.4359 39.6616ZM0.33964 13.363C0.33964 13.5501 0.411434 13.668 0.539606 13.7938C0.974583 14.2206 1.38089 14.7806 1.76541 15.2609C2.01034 15.5573 2.2278 15.8808 2.49277 16.1591C2.7582 16.4377 2.98463 16.749 3.23393 17.0433C3.32123 17.1464 3.39402 17.2221 3.47952 17.3315L4.73083 18.7974C5.09213 19.2676 5.59386 19.7984 5.98517 20.2603L6.7265 21.1444C7.24218 21.7235 7.7097 22.343 8.21902 22.9271L10.717 25.8393C10.8035 25.9364 10.8755 26.0291 10.9582 26.1318C11.0473 26.2424 11.1257 26.3297 11.2119 26.4361L12.1977 27.6337C12.246 27.6891 12.2724 27.7257 12.3191 27.7793L13.3254 28.9322C13.5082 29.1121 13.6648 29.3247 13.8343 29.515L15.1872 31.1461C15.2635 31.2442 15.3536 31.339 15.43 31.4371C15.5113 31.5415 15.5902 31.6385 15.68 31.7451C15.766 31.8473 16.0673 32.2864 16.2304 32.2864C16.4155 32.2864 16.3668 32.0759 16.3759 31.8981C16.6661 26.2102 17.2299 20.2203 17.275 14.5758C17.2771 14.3147 17.1917 14.3083 16.9791 14.0457L16.6127 13.6115C16.2779 13.2749 15.8043 12.6787 15.4359 12.3137L14.2712 11.0281C13.9095 10.6211 13.3294 9.89379 13.0097 9.57236L11.2884 7.72732C11.1166 7.5221 10.9593 7.34051 10.7777 7.14638L10.402 6.72136C10.2674 6.56981 9.87338 6.03625 9.70429 6.03625C9.55716 6.03625 9.44557 6.15034 9.34069 6.23059L7.8745 7.36035C7.2864 7.81982 6.68362 8.25009 6.10618 8.72165C5.53336 9.18938 4.92263 9.60365 4.35023 10.071C4.15284 10.2323 3.96079 10.3702 3.76374 10.5278C3.28252 10.9128 2.77579 11.2664 2.29722 11.6572L1.70578 12.109C1.60365 12.1924 1.50677 12.2683 1.40739 12.3443L0.824827 12.805C0.766741 12.8497 0.752366 12.8693 0.697697 12.9204C0.639236 12.9751 0.611485 12.9835 0.55144 13.041C0.478937 13.1104 0.33964 13.2401 0.33964 13.363ZM0 14.6003V37.187C0 37.8626 0.181924 38.5046 0.648486 38.9889C0.843619 39.1915 1.07796 39.4099 1.33368 39.541C1.53123 39.6423 2.00929 39.8072 2.30481 39.8072H15.7695C15.9638 39.8072 15.9775 39.6514 15.9888 39.4685L16.0187 38.9162C16.0532 38.6649 16.0566 38.3426 16.0597 38.0837C16.0612 37.9529 16.0821 37.9408 16.0856 37.8186L16.1569 36.1673C16.1605 36.0452 16.1813 36.033 16.1829 35.9022C16.1894 35.374 16.1476 35.4433 15.7348 34.8926L12.9656 31.257C12.8759 31.1374 12.8032 31.0404 12.7161 30.9243C11.4541 29.242 10.1257 27.4195 8.84117 25.7743L8.06859 24.7758C8.01922 24.7125 7.98859 24.678 7.94013 24.6131L2.6757 17.6259C2.50548 17.3977 2.33577 17.1995 2.16618 16.9709L0.402226 14.659C0.367933 14.6148 0.301805 14.5278 0.268137 14.5008C0.187383 14.4361 0 14.4317 0 14.6003Z" fill="url(#paint0_radial)"/>
<defs>
<radialGradient id="paint0_radial" cx="0" cy="0" r="1" gradientUnits="userSpaceOnUse" gradientTransform="translate(23.7852 12.7379) scale(33.5097 35.8898)">
<stop stop-color="#82B93E"/>
<stop offset="1" stop-color="#0A703A"/>
</radialGradient>
</defs>
</svg>
